<?xml version="1.0" encoding="UTF-8" standalone="no"?>
<!-- Created with Inkscape (http://www.inkscape.org/) -->

<svg
   width="195.90317mm"
   height="170.7413mm"
   viewBox="0 0 195.90316 170.7413"
   version="1.1"
   id="svg1"
   xml:space="preserve"
   inkscape:version="1.3.2 (091e20e, 2023-11-25, custom)"
   sodipodi:docname="triforce.svg"
   xmlns:inkscape="http://www.inkscape.org/namespaces/inkscape"
   xmlns:sodipodi="http://sodipodi.sourceforge.net/DTD/sodipodi-0.dtd"
   xmlns="http://www.w3.org/2000/svg"
   xmlns:svg="http://www.w3.org/2000/svg"><sodipodi:namedview
     id="namedview1"
     pagecolor="#505050"
     bordercolor="#eeeeee"
     borderopacity="1"
     inkscape:showpageshadow="0"
     inkscape:pageopacity="0"
     inkscape:pagecheckerboard="0"
     inkscape:deskcolor="#505050"
     inkscape:document-units="mm"
     inkscape:zoom="0.58885382"
     inkscape:cx="142.65001"
     inkscape:cy="192.74733"
     inkscape:window-width="1600"
     inkscape:window-height="837"
     inkscape:window-x="-8"
     inkscape:window-y="-8"
     inkscape:window-maximized="1"
     inkscape:current-layer="layer1" /><defs
     id="defs1" /><g
     inkscape:label="Layer 1"
     inkscape:groupmode="layer"
     id="layer1"
     transform="translate(-67.397881,-97.687454)"><path
       style="fill:#000000"
       d="m 72.135862,263.24011 c 0.275639,-0.47294 10.789953,-18.68951 23.365142,-40.48125 12.575186,-21.79175 22.928226,-39.621 23.006746,-39.62057 0.0785,4.3e-4 10.62026,18.15745 23.4261,40.34892 12.80583,22.19148 23.34286,40.34748 23.41562,40.34667 0.0728,-8.2e-4 10.60979,-18.15736 23.41563,-40.34787 12.80583,-22.19051 23.3472,-40.34686 23.42527,-40.34744 0.0781,-5.9e-4 10.43069,17.82854 23.00582,39.62029 12.57514,21.79174 23.08982,40.00831 23.36597,40.48125 l 0.50208,0.8599 H 165.34947 71.634699 Z m 47.104608,-81.63946 c 22.34359,-38.78409 46.00922,-79.6801 46.109,-79.67985 0.10182,2.6e-4 20.03051,34.43885 46.109,79.68057 l 0.73296,1.27155 h -46.84196 -46.84195 z"
       id="path1" /></g></svg>
